<svg xmlns="http://www.w3.org/2000/svg" viewBox="0 0 24 30" x="0px" y="0px"><title>user, interface, ui, disk, save, diskette, floppy disk</title><g><path d="M8,22h8V13H8Zm2-7h4a1,1,0,0,1,0,2H10a1,1,0,0,1,0-2ZM22,8V21a1,1,0,0,1-1,1H18V12a1,1,0,0,0-1-1H7a1,1,0,0,0-1,1V22H3a1,1,0,0,1-1-1V3A1,1,0,0,1,3,2H16a1,1,0,0,1,.71.29l5,5A1,1,0,0,1,22,8Z"/></g><text x="0" y="39" fill="#000000" font-size="5px" font-weight="bold" font-family="'Helvetica Neue', Helvetica, Arial-Unicode, Arial, Sans-serif">Created by Kmg Design</text><text x="0" y="44" fill="#000000" font-size="5px" font-weight="bold" font-family="'Helvetica Neue', Helvetica, Arial-Unicode, Arial, Sans-serif">from the Noun Project</text></svg>