<svg xmlns="http://www.w3.org/2000/svg" viewBox="0 0 24 30" x="0px" y="0px"><title>user, interface, ui, folder, storage, open, document</title><g data-name="Document Open"><path d="M21.86,9.49A1,1,0,0,0,21,9H15.5L12.8,5.4A1,1,0,0,0,12,5H3A1,1,0,0,0,2,6V19H2a1,1,0,0,0,0,.29.36.36,0,0,0,0,.09.61.61,0,0,0,.05.12l0,.06.07.08a.67.67,0,0,0,.15.14l.07.05a1.11,1.11,0,0,0,.27.13h0A1.07,1.07,0,0,0,3,20H16a1,1,0,0,0,.87-.51l5-9A1,1,0,0,0,21.86,9.49ZM11.5,7,13,9H8a1,1,0,0,0-.87.51L4,15.14V7Z"/></g><text x="0" y="39" fill="#000000" font-size="5px" font-weight="bold" font-family="'Helvetica Neue', Helvetica, Arial-Unicode, Arial, Sans-serif">Created by Kmg Design</text><text x="0" y="44" fill="#000000" font-size="5px" font-weight="bold" font-family="'Helvetica Neue', Helvetica, Arial-Unicode, Arial, Sans-serif">from the Noun Project</text></svg>