<svg xmlns="http://www.w3.org/2000/svg" viewBox="0 0 24 30" x="0px" y="0px"><title>user, interface, ui, plus, zoom, zoom in, search</title><g data-name="+ Zoom"><path d="M10,2a8,8,0,1,0,8,8A8,8,0,0,0,10,2Zm2,9H11v1a1,1,0,0,1-2,0V11H8A1,1,0,0,1,8,9H9V8a1,1,0,0,1,2,0V9h1a1,1,0,0,1,0,2Zm9.71,10.71a1,1,0,0,1-1.42,0L15.61,17A8.67,8.67,0,0,0,17,15.61l4.68,4.68A1,1,0,0,1,21.71,21.71Z"/></g><text x="0" y="39" fill="#000000" font-size="5px" font-weight="bold" font-family="'Helvetica Neue', Helvetica, Arial-Unicode, Arial, Sans-serif">Created by Kmg Design</text><text x="0" y="44" fill="#000000" font-size="5px" font-weight="bold" font-family="'Helvetica Neue', Helvetica, Arial-Unicode, Arial, Sans-serif">from the Noun Project</text></svg>